<svg xmlns="http://www.w3.org/2000/svg" width="36px" height="36px" viewBox="0 0 36 36">
  <path style="stroke:none;fill-rule:nonzero;fill:rgb(9.803922%,46.27451%,82.352941%);fill-opacity:1" d="M 31.5 0 L 4.5 0 C 2.019531 0 0 2.019531 0 4.5 L 0 31.5 C 0 33.980469 2.019531 36 4.5 36 L 31.5 36 C 33.980469 36 36 33.980469 36 31.5 L 36 4.5 C 36 2.019531 33.980469 0 31.5 0 Z M 31.5 0"/>
  <path style="stroke:none;fill-rule:evenodd;fill:rgb(98.039216%,98.039216%,98.039216%);fill-opacity:1" d="M 30.375 18 L 24.75 18 L 24.75 13.5 C 24.75 12.257812 25.757812 12.375 27 12.375 L 29.25 12.375 L 29.25 6.75 L 24.75 6.75 C 21.023438 6.75 18 9.773438 18 13.5 L 18 18 L 13.5 18 L 13.5 23.625 L 18 23.625 L 18 36 L 24.75 36 L 24.75 23.625 L 28.125 23.625 Z M 30.375 18"/>
</svg>
