<svg width="24" height="24" viewBox="0 0 24 24" fill="none" xmlns="http://www.w3.org/2000/svg">
  <path d="M23.9999 12.2665C23.9999 11.2799 23.9182 10.5599 23.7414 9.81323H12.2448V14.2665H18.9931C18.8571 15.3732 18.1224 17.0399 16.4897 18.1598L16.4668 18.3089L20.1018 21.0686L20.3537 21.0932C22.6665 18.9998 23.9999 15.9198 23.9999 12.2665Z" fill="#4285F4"/>
  <path d="M12.2442 24.0002C15.5502 24.0002 18.3257 22.9334 20.353 21.0935L16.489 18.1601C15.455 18.8668 14.0672 19.3601 12.2442 19.3601C9.0061 19.3601 6.25783 17.2669 5.27815 14.3735L5.13455 14.3855L1.35482 17.2521L1.30539 17.3868C3.31897 21.3068 7.45502 24.0002 12.2442 24.0002Z" fill="#34A853"/>
  <path d="M5.27885 14.3733C5.02035 13.6267 4.87075 12.8266 4.87075 12C4.87075 11.1733 5.02035 10.3733 5.26525 9.62666L5.2584 9.46764L1.4313 6.55493L1.30609 6.6133C0.476194 8.23998 0 10.0667 0 12C0 13.9333 0.476194 15.7599 1.30609 17.3866L5.27885 14.3733Z" fill="#FBBC05"/>
  <path d="M12.2442 4.63995C14.5434 4.63995 16.0944 5.61328 16.9788 6.42666L20.4346 3.11999C18.3122 1.18667 15.5502 0 12.2442 0C7.45502 0 3.31897 2.6933 1.30539 6.61326L5.26455 9.62662C6.25783 6.7333 9.0061 4.63995 12.2442 4.63995Z" fill="#EB4335"/>
</svg>
