<svg xmlns="http://www.w3.org/2000/svg" version="1.0" width="200.000000pt" height="200.000000pt" viewBox="0 0 200.000000 200.000000" preserveAspectRatio="xMidYMid meet">
  <g transform="translate(0.000000,200.000000) scale(0.100000,-0.100000)" fill="#000000" stroke="none">
    <path d="M912 1352 c-26 -23 -195 -450 -186 -471 4 -9 8 -24 9 -33 3 -29 10 -31 123 -44 169 -20 209 -19 227 10 9 13 45 118 81 233 53 170 64 216 59 250 -4 26 -13 46 -23 52 -9 4 -74 11 -144 14 -111 6 -129 4 -146 -11z m200 -28 l96 -7 -12 -41 c-7 -23 -39 -121 -70 -218 l-57 -178 -39 0 c-44 0 -76 10 -63 19 4 4 30 30 57 58 52 55 56 86 6 56 -16 -9 -32 -14 -36 -11 -3 4 1 41 10 83 19 94 20 105 3 105 -8 0 -22 -25 -32 -60 -18 -59 -18 -59 -62 -66 -24 -3 -45 -9 -47 -13 -3 -4 -8 -34 -11 -68 l-7 -62 48 -15 49 -16 -75 6 c-93 6 -132 14 -128 23 2 5 39 99 82 210 l79 201 56 0 c31 0 99 -3 153 -6z m-36 -472 c-17 -16 -18 -16 -5 5 7 12 15 20 18 17 3 -2 -3 -12 -13 -22z m-268 1 c-10 -2 -28 -2 -40 0 -13 2 -5 4 17 4 22 1 32 -1 23 -4z m95 -10 c-7 -2 -21 -2 -30 0 -10 3 -4 5 12 5 17 0 24 -2 18 -5z m95 -10 c-10 -2 -26 -2 -35 0 -10 3 -2 5 17 5 19 0 27 -2 18 -5z m49 1 c-3 -3 -12 -4 -19 -1 -8 3 -5 6 6 6 11 1 17 -2 13 -5z"/>
    <path d="M941 1234 c-12 -15 -21 -38 -20 -53 l1 -26 8 28 c11 35 28 57 55 67 20 9 19 9 -2 9 -12 1 -31 -11 -42 -25z"/>
    <path d="M1050 1243 c0 -6 7 -17 16 -24 12 -9 15 -24 11 -51 -3 -21 -1 -36 4 -32 18 10 10 80 -11 99 -11 10 -20 13 -20 8z"/>
    <path d="M960 1211 c-5 -11 -10 -28 -9 -38 0 -13 3 -11 10 7 5 14 17 31 26 38 16 11 16 12 0 12 -9 0 -21 -9 -27 -19z"/>
    <path d="M1039 1207 c8 -11 11 -27 6 -44 -5 -21 -4 -25 5 -17 16 16 9 66 -10 72 -13 5 -13 3 -1 -11z"/>
    <path d="M1718 825 c-3 -4 5 -23 19 -43 25 -37 27 -71 8 -129 -10 -32 9 -29 23 2 22 48 15 111 -16 146 -15 17 -30 28 -34 24z"/>
    <path d="M490 735 c0 -37 4 -65 10 -65 6 0 10 28 10 65 0 37 -4 65 -10 65 -6 0 -10 -28 -10 -65z"/>
    <path d="M1150 735 c0 -37 4 -65 10 -65 6 0 10 28 10 65 0 37 -4 65 -10 65 -6 0 -10 -28 -10 -65z"/>
    <path d="M1700 787 c0 -4 7 -19 16 -32 12 -18 14 -36 10 -62 -5 -28 -4 -34 3 -23 17 24 12 76 -9 101 -10 13 -19 20 -20 16z"/>
    <path d="M374 746 c-3 -7 -3 -35 -1 -62 l3 -49 2 53 2 52 35 0 c31 0 35 -3 35 -25 0 -20 -5 -25 -25 -25 -14 0 -25 -4 -25 -10 0 -5 11 -10 25 -10 33 0 52 38 36 69 -14 25 -78 30 -87 7z"/>
    <path d="M520 751 c0 -6 11 -11 25 -11 22 0 25 -4 25 -35 0 -19 5 -35 11 -35 6 0 9 17 7 43 -3 39 -5 42 -35 45 -19 2 -33 -1 -33 -7z"/>
    <path d="M622 748 c-16 -16 -15 -53 2 -67 8 -7 30 -11 48 -9 31 3 33 5 33 43 0 38 -1 40 -35 43 -19 2 -41 -3 -48 -10z m76 -35 c3 -20 -1 -23 -32 -23 -32 0 -36 3 -36 26 0 23 3 25 33 22 24 -2 33 -8 35 -25z"/>
    <path d="M740 715 c0 -25 5 -45 10 -45 6 0 10 16 10 36 0 33 2 35 28 32 22 -2 28 -8 30 -35 4 -43 22 -43 22 0 0 43 -15 57 -62 57 l-38 0 0 -45z"/>
    <path d="M864 736 c-10 -43 -2 -61 34 -64 18 -2 32 1 32 7 0 6 -11 11 -25 11 -20 0 -25 5 -25 25 0 21 5 25 30 25 17 0 30 -4 30 -10 0 -5 -11 -10 -25 -10 -14 0 -25 -5 -25 -11 0 -6 14 -9 33 -7 27 2 32 7 32 28 0 22 -5 25 -42 28 -38 3 -43 0 -49 -22z"/>
    <path d="M1044 745 c-9 -22 4 -35 37 -35 16 0 29 -4 29 -10 0 -5 -16 -10 -35 -10 -19 0 -35 -4 -35 -10 0 -16 66 -12 80 5 16 20 -1 42 -38 48 -24 4 -24 4 6 6 44 2 41 21 -3 21 -22 0 -38 -6 -41 -15z"/>
    <path d="M1180 750 c0 -5 11 -10 25 -10 22 0 25 -4 25 -35 0 -19 5 -35 10 -35 14 0 12 64 -2 78 -15 15 -58 16 -58 2z"/>
    <path d="M1274 736 c-12 -49 -3 -61 46 -61 l45 0 0 40 c0 40 0 40 -42 43 -38 3 -43 0 -49 -22z m76 -21 c0 -21 -5 -25 -30 -25 -25 0 -30 4 -30 25 0 21 5 25 30 25 25 0 30 -4 30 -25z"/>
    <path d="M1407 753 c-4 -3 -6 -31 -5 -62 l1 -56 6 50 c6 48 8 50 39 53 29 3 32 1 32 -22 0 -21 -5 -26 -25 -26 -14 0 -25 -4 -25 -10 0 -14 43 -13 58 2 7 7 12 21 12 33 0 12 -5 26 -12 33 -13 13 -70 17 -81 5z"/>
  </g>
</svg>
