<svg xmlns="http://www.w3.org/2000/svg" fill="currentColor" width="20px" height="20px" viewBox="0 0 20 20">
  <path d="M 3.332031 15 L 5 15 L 5 18.402344 L 9.25 15 L 13.332031 15 C 14.253906 15 15 14.253906 15 13.332031 L 15 6.667969 C 15 5.746094 14.253906 5 13.332031 5 L 3.332031 5 C 2.414062 5 1.667969 5.746094 1.667969 6.667969 L 1.667969 13.332031 C 1.667969 14.253906 2.414062 15 3.332031 15 Z M 3.332031 15"/>
  <path d="M 16.667969 1.667969 L 6.667969 1.667969 C 5.746094 1.667969 5 2.414062 5 3.332031 L 15 3.332031 C 15.917969 3.332031 16.667969 4.082031 16.667969 5 L 16.667969 11.667969 C 17.585938 11.667969 18.332031 10.917969 18.332031 10 L 18.332031 3.332031 C 18.332031 2.414062 17.585938 1.667969 16.667969 1.667969 Z M 16.667969 1.667969"/>
</svg>
