<svg width="12" height="7" viewBox="0 0 12 7" fill="none" xmlns="http://www.w3.org/2000/svg">
  <path d="M10.0965 2.35649C10.0681 2.28797 10.02 2.2294 9.95834 2.1882C9.89667 2.14699 9.82417 2.125 9.75 2.125H2.25C2.17583 2.125 2.10333 2.14699 2.04166 2.1882C1.97999 2.22941 1.93193 2.28797 1.90354 2.3565C1.87516 2.42502 1.86774 2.50042 1.88221 2.57317C1.89668 2.64591 1.9324 2.71273 1.98484 2.76517L5.73484 6.51516C5.76966 6.54998 5.811 6.57761 5.8565 6.59645C5.90199 6.6153 5.95076 6.625 6 6.625C6.04925 6.625 6.09801 6.6153 6.14351 6.59645C6.189 6.57761 6.23034 6.54998 6.26516 6.51516L10.0152 2.76517C10.0676 2.71273 10.1033 2.64591 10.1178 2.57316C10.1323 2.50042 10.1248 2.42502 10.0965 2.35649Z" fill="current"/>
</svg>
