<svg width="12" height="7" viewBox="0 0 12 7" fill="none" xmlns="http://www.w3.org/2000/svg">
  <path d="M10.0152 5.23483L6.26516 1.48483C6.19484 1.41451 6.09945 1.375 6 1.375C5.90055 1.375 5.80517 1.41451 5.73484 1.48483L1.98484 5.23483C1.9324 5.28727 1.89668 5.35409 1.88221 5.42683C1.86774 5.49958 1.87516 5.57498 1.90354 5.6435C1.93193 5.71202 1.97999 5.77059 2.04166 5.81179C2.10333 5.853 2.17583 5.87499 2.25 5.87499H9.75C9.82417 5.87499 9.89667 5.853 9.95834 5.81179C10.02 5.77059 10.0681 5.71202 10.0965 5.6435C10.1248 5.57498 10.1323 5.49958 10.1178 5.42683C10.1033 5.35409 10.0676 5.28727 10.0152 5.23483Z" fill="current"/>
</svg>
