<svg xmlns="http://www.w3.org/2000/svg" width="32" height="32" fill-rule="evenodd" xmlns:v="https://vecta.io/nano"><path d="M14.906 5.52c-.008.008-.156.027-.332.047-.414.043-.781.105-1.133.195l-.273.063-.352.094c-.02.012-.098.039-.176.063l-.199.07c-.031.016-.078.027-.105.027s-.074.016-.105.031l-.301.129c-1.012.402-2.055.992-2.664 1.508-.801.676-1.484 1.746-1.316 2.062.098.18.609.223.961.078l.18-.062c.059-.023.414-.187.781-.367l1.457-.68.168-.074c.031-.02.078-.031.105-.031s.074-.016.102-.031c.109-.059.637-.219 1.031-.312 1.906-.449 3.926-.344 5.219.273.504.242 1.047.703 1.336 1.137s.383.676.523 1.352c.047.238.047 1.488-.004 1.813-.09.602-.184 1.035-.258 1.227l-.062.176c-.035.098-.066.168-.203.48-.352.773-1.152 1.48-2.008 1.762-.195.066-.297.094-.598.16l-.273.059-.484.098c-1.398.254-1.477.293-1.473.734.004.473.336.758 1.152.988.773.219 2.48.195 3.398-.047l.402-.098c.047-.008.094-.031.105-.047s.043-.027.082-.027c.137 0 1.047-.457 1.422-.723.715-.496 1.426-1.227 1.957-2.027a8.66 8.66 0 0 0 .684-1.273l.059-.145c.152-.379.301-1.016.371-1.605.145-1.207-.09-2.656-.566-3.484l-.223-.398-.09-.137c-.016-.008-.086-.105-.164-.223-.141-.207-.918-1.023-.977-1.023-.016 0-.078-.043-.133-.098-.098-.09-.625-.445-.848-.57l-.746-.371-.223-.102c-.051-.023-.113-.043-.145-.043s-.066-.012-.082-.027a1.51 1.51 0 0 0-.27-.098l-.316-.102c-.039-.016-.102-.031-.133-.031s-.09-.012-.121-.027a1.33 1.33 0 0 0-.246-.066l-.32-.066c-.309-.066-.672-.113-1.367-.187-.301-.035-2.176-.051-2.207-.02m-1.383 4.063c-.793.328-1.695 1.492-2.418 3.129l-.133.305c-.086.191-.395.984-.496 1.273l-.109.285c-.016.035-.074.211-.129.387l-.129.375c-.016.031-.031.078-.031.105s-.012.074-.027.102a1.29 1.29 0 0 0-.066.199l-.062.211c-.016.035-.043.129-.066.207l-.062.207c-.016.035-.043.121-.062.191s-.062.23-.098.352l-.477 1.875-.105.445-.105.496-.051.242-.062.336-.066.367L8.574 22c-.145 1.313-.145 2.973-.004 3.777.063.355.176.543.414.676.105.063.5.078 1.016.043.621-.039.828-.074 1.246-.191l.203-.055c.039-.008.078-.031.09-.047s.043-.027.078-.027.063-.012.063-.023.039-.043.09-.062c.27-.125.613-.5.66-.73.043-.207.082-.637.117-1.297l.125-2.391.063-1.215c.047-.934.102-1.348.324-2.41l.121-.605.066-.305.094-.449.18-.863.148-.719.125-.672.063-.355.133-.742.059-.383c.109-.684.172-1.504.176-2.25 0-1.145-.129-1.355-.699-1.121" fill="rgb(98.431373%,98.431373%,98.823529%)"/><path d="M2.449.023c-.055.008-.109.027-.129.043s-.07.031-.117.031-.09.012-.09.031S2.07.16 2.016.16s-.094.016-.094.031-.031.031-.066.031-.062.016-.062.035-.031.031-.066.031-.062.012-.062.031-.027.031-.062.031-.066.016-.066.031-.023.031-.051.031-.09.047-.141.098-.105.098-.125.098c-.078 0-.609.531-.609.609 0 .02-.043.074-.098.125s-.098.113-.098.141-.012.051-.031.051-.031.031-.031.066-.016.063-.031.063-.031.027-.031.063-.016.066-.031.066-.035.027-.035.063-.012.066-.031.066-.031.043-.031.094-.016.098-.031.098-.031.039-.031.094-.02.098-.043.105c-.059.02-.059 27.328 0 27.387.023.023.043.074.043.113s.012.082.031.09.031.055.031.098.016.078.031.078.031.031.031.066.016.063.035.063.031.031.031.066.012.063.031.063.031.027.031.063.016.066.031.066.031.023.031.051.047.09.098.141.098.105.098.125c0 .078.531.609.609.609.02 0 .074.043.125.098s.113.098.141.098.051.012.051.031.031.031.066.031.063.016.063.031.027.031.063.031.066.016.066.031.027.035.063.035.066.012.066.031.043.031.094.031.098.016.098.031.039.031.094.031.098.02.105.043c.02.059 27.355.059 27.375 0 .008-.023.055-.043.105-.043s.094-.012.094-.031.043-.031.098-.031.094-.016.094-.031.031-.031.066-.031.063-.016.063-.035.031-.031.066-.031.063-.012.063-.031.027-.031.063-.031.066-.016.066-.031.023-.031.051-.031.09-.047.141-.098.105-.098.129-.098c.035 0 .328-.258.461-.41l.105-.117c.023-.023.039-.059.039-.082s.043-.074.098-.125.098-.113.098-.141.012-.051.031-.051.031-.031.031-.066.016-.062.031-.062.031-.027.031-.062.016-.066.031-.066.035-.027.035-.062.012-.066.031-.066.031-.043.031-.094.016-.098.031-.098.031-.031.031-.074.02-.09.043-.113c.031-.031.039-2.816.039-13.707l-.039-13.68c-.023-.008-.043-.055-.043-.105s-.012-.094-.031-.094-.031-.043-.031-.098-.016-.094-.031-.094-.031-.031-.031-.066-.016-.062-.035-.062-.031-.031-.031-.066-.012-.062-.031-.062-.031-.027-.031-.062-.016-.066-.031-.066-.031-.023-.031-.051-.047-.09-.098-.141-.098-.105-.098-.125c0-.055-.207-.277-.492-.539-.043-.039-.098-.07-.117-.07s-.074-.043-.125-.098-.113-.098-.141-.098-.051-.012-.051-.031-.031-.031-.066-.031-.062-.016-.062-.031-.027-.031-.062-.031-.066-.016-.066-.031-.027-.035-.062-.035-.066-.012-.066-.031S30.043.16 30 .16s-.086-.016-.098-.031-.051-.031-.09-.031-.09-.02-.113-.043C29.664.016 2.715-.016 2.449.023m14.336 5.434c.863.063 1.137.094 1.711.207.098.02.195.039.297.055.066.008.129.027.137.043s.066.031.125.031.117.012.129.031.051.031.09.031c.078.004.488.137.523.172.012.012.047.02.082.02s.082.016.113.031c.051.023.09.039.297.121.527.207 1.324.688 1.871 1.125a6.7 6.7 0 0 1 1.086 1.215c.02.031.043.059.051.07a.54.54 0 0 1 .051.078c.086.156.125.227.141.242a2.23 2.23 0 0 1 .125.238l.168.348c.031.066.059.148.059.18s.016.07.031.082.031.051.031.09.012.086.027.102c.023.027.047.117.133.512.094.434.113.652.113 1.359s-.02.918-.117 1.344l-.121.512c-.016.043-.043.145-.066.227-.043.16-.059.207-.156.422-.035.082-.066.16-.066.172 0 .023-.199.441-.223.461-.012.008-.055.086-.098.176a2.72 2.72 0 0 1-.102.191c-.016.02-.121.176-.234.352-.586.879-1.492 1.766-2.258 2.203-.383.223-.934.477-1.23.566l-.289.094c-.121.047-.613.145-.941.191a9.89 9.89 0 0 1-2.305-.031l-.328-.051c-.086-.012-.16-.031-.172-.047s-.047-.027-.082-.027-.121-.031-.195-.066a.71.71 0 0 0-.16-.062c-.105 0-.492-.344-.566-.504-.023-.051-.047-.098-.07-.145-.148-.293.063-.691.422-.789l.242-.07a.84.84 0 0 1 .191-.027c.055 0 .109-.016.129-.031s.105-.035.195-.047l.336-.039c.094-.012.184-.031.199-.047s.086-.031.152-.031.129-.012.137-.031.078-.031.145-.031.133-.016.145-.031.07-.031.129-.031.117-.016.129-.035.055-.031.094-.031.117-.016.168-.035l.152-.062c.035-.012.133-.055.215-.09s.16-.066.172-.066c.031 0 .566-.375.711-.5.328-.281.738-.895.938-1.414l.059-.145c.016-.039.047-.137.066-.215l.066-.219a.53.53 0 0 0 .031-.16c0-.047.012-.102.027-.117s.039-.109.047-.207.035-.32.059-.496c.055-.43.055-1.41 0-1.695l-.062-.344c-.008-.066-.027-.129-.043-.141s-.027-.047-.027-.082-.031-.121-.066-.195-.062-.148-.062-.172-.016-.043-.031-.043-.031-.031-.031-.066-.016-.062-.035-.062-.031-.016-.031-.035c0-.137-.566-.777-.879-.988a2.24 2.24 0 0 1-.176-.125c-.016-.02-.113-.07-.418-.227-.809-.414-2.098-.586-3.582-.484-.465.035-1.18.129-1.449.199-.277.066-.395.102-.465.129-.039.016-.102.027-.137.027s-.09.016-.125.031L12 8.609c-.035.016-.09.031-.125.031s-.07.016-.082.031-.051.031-.082.031a.42.42 0 0 0-.121.027c-.027.016-.09.043-.133.063s-.148.063-.234.098-.211.098-.285.129a86.57 86.57 0 0 0-1.383.664c-.223.113-.437.203-.469.203s-.066.016-.074.031c-.047.074-.832.125-.977.063-.207-.094-.242-.309-.105-.637a4.4 4.4 0 0 1 .453-.734c.008-.012.066-.082.129-.16.184-.238.203-.258.367-.434.555-.574 1.688-1.285 2.801-1.75l.137-.062c.031-.016.082-.027.121-.027S12 6.16 12 6.145s.035-.031.078-.031.082-.016.082-.035.035-.031.078-.031.086-.012.098-.031.055-.031.098-.031.082-.016.094-.031.055-.031.098-.031.086-.016.094-.035.055-.031.098-.031.082-.012.094-.027.063-.035.121-.047a5.34 5.34 0 0 0 .242-.051c.391-.098.543-.129.984-.191.172-.027.754-.082 1.133-.109.344-.023.734-.016 1.395.027m-2.684 4.098c.066.07.105.145.105.199s.016.105.035.121c.043.043.016 1.91-.031 2.332-.062.547-.152 1.113-.32 2.039-.02.094-.047.258-.066.363l-.113.605-.148.738-.16.766a9.33 9.33 0 0 0-.059.289l-.062.289-.129.625-.062.301c-.043.184-.082.398-.133.672-.105.617-.109.664-.254 3.336l-.062 1.234c-.102 1.879-.098 1.832-.238 2.105-.094.184-.219.324-.402.445-.062.043-.121.086-.129.094s-.086.055-.176.094l-.215.105a.32.32 0 0 1-.117.027c-.035 0-.074.016-.082.031s-.07.031-.129.031-.117.016-.125.031a.57.57 0 0 1-.187.047l-.375.055c-.965.141-1.793.012-1.793-.281 0-.023-.016-.043-.031-.043s-.031-.027-.031-.062-.016-.07-.031-.078c-.117-.074-.207-1.637-.16-2.785.035-.812.078-1.258.188-2l.051-.387c.012-.094.031-.203.047-.238a1.11 1.11 0 0 0 .047-.207c.039-.328.055-.437.082-.496.016-.035.035-.117.043-.176s.031-.18.051-.258.047-.215.066-.305a3.96 3.96 0 0 1 .063-.285l.074-.336a91.27 91.27 0 0 1 .391-1.523c.031-.105.063-.23.07-.277s.031-.098.047-.105.027-.055.027-.098.012-.105.027-.133c.027-.055.047-.121.133-.426a1.29 1.29 0 0 1 .066-.199c.02-.035.027-.078.031-.117s.012-.07.031-.082.031-.055.031-.098.016-.086.031-.094.031-.055.031-.098.016-.086.031-.098.035-.051.035-.094.012-.086.031-.098.031-.059.031-.105.012-.102.027-.117.043-.09.066-.16a9.65 9.65 0 0 1 .195-.543c.012-.035.063-.172.109-.305.105-.289.113-.309.293-.727.027-.066.074-.172.102-.234.063-.152.254-.562.336-.719.184-.363.266-.516.277-.527a1.06 1.06 0 0 0 .094-.16c.102-.184.477-.758.566-.863.285-.332.539-.609.555-.609s.063-.039.113-.09c.449-.414.977-.566 1.191-.34" fill="rgb(10.980392%,61.176471%,92.54902%)"/><path d="M15.656 5.465h.559c.156-.008.027-.012-.277-.012l-.281.012m-.625.031a.45.45 0 0 0 .145 0c.039-.008.008-.016-.07-.016s-.113.008-.074.016m1.648-.004c.031.012.082.012.113 0s.004-.012-.059-.012-.086.004-.055.012m5.625 2.004c0 .008.047.055.102.105l.105.094-.094-.102c-.086-.098-.113-.121-.113-.098m-13.41.527l-.176.184.184-.176c.172-.16.199-.191.176-.191-.004 0-.086.082-.184.184m13.922.02a.89.89 0 0 0 .105.102l.102.094-.094-.102c-.086-.098-.113-.121-.113-.094m-7.879.043a2.41 2.41 0 0 0 .336 0c.09-.004.016-.012-.168-.012s-.262.008-.168.012m-.531.031a.69.69 0 0 0 .18 0c.047-.004.008-.012-.09-.012s-.137.008-.09.012m1.234 0a.45.45 0 0 0 .145 0c.039-.008.008-.012-.074-.012s-.109.004-.07.012m.984.105c.035.016.086.027.109.027.031 0 .027-.008-.016-.027-.035-.016-.086-.027-.109-.027-.031 0-.027.012.016.027m1.742.652c0 .008.043.047.098.086s.094.059.094.051-.043-.047-.094-.082-.098-.062-.098-.055m-4.633.617c.031.012.082.012.113 0s.008-.012-.055-.012-.086.004-.059.012m-5.469.516c.063.008.172.008.238 0s.012-.012-.121-.012-.184.004-.117.012m5.984.281c0 .121.008.168.012.102a1.06 1.06 0 0 0 0-.223c-.004-.059-.012-.004-.012.121m.004.703c0 .23.004.316.012.199v-.418c-.008-.109-.012-.012-.012.219m9.883.367c0 .098.008.137.016.09a.66.66 0 0 0 0-.176c-.008-.051-.016-.012-.016.086m-9.922.32c0 .063.008.086.016.055s.008-.078 0-.109-.016-.008-.016.055m5.605.223c0 .188.004.262.012.168a2.41 2.41 0 0 0 0-.336c-.008-.09-.012-.016-.012.168m-5.637.195c0 .078.008.109.016.07a.45.45 0 0 0 0-.145c-.008-.039-.016-.008-.016.074m9.953.141c0 .105.008.148.016.09s.004-.145 0-.191-.016-.004-.016.102m-10.355 2.391c-.027.133-.004.16.027.027.012-.055.016-.109.008-.117s-.023.031-.035.09m8.473 1.957l-.094.102.105-.094c.094-.086.117-.113.094-.113-.008 0-.055.047-.105.105m-7.867.84a.73.73 0 0 0-.016.152c.004.086.008.078.027-.043.027-.152.023-.195-.012-.109m2.484 1.348c.066.008.176.008.242 0s.012-.012-.121-.012-.187.008-.121.012m.578 0a.66.66 0 0 0 .176 0c.047-.004.008-.012-.09-.012s-.137.008-.086.012m-4.641.988c0 .105.008.145.016.086s.008-.145 0-.191-.016 0-.016.105m-.031.445c0 .07.004.098.012.055s.008-.094 0-.125-.012 0-.012.07m-.031.688c0 .133.008.188.012.121s.008-.172 0-.238-.012-.012-.012.117m-.035.496c0 .07.008.098.016.059s.008-.098 0-.129-.016 0-.016.07m-4.16.418c0 .07.008.094.016.055s.008-.098 0-.129-.016.004-.016.074m4.133.254c0 .125.004.172.012.105s.008-.168 0-.227-.012 0-.012.121m-4.195.371c0 .059.004.086.016.055s.008-.082 0-.113-.016-.004-.016.059m4.16.176c0 .07.008.094.016.055s.008-.098-.004-.129-.012.004-.012.074m-4.191.191c0 .07.008.094.012.055s.008-.098 0-.129-.012.004-.012.074m4.16.543c0 .125.008.172.016.105a2.19 2.19 0 0 0 0-.227c-.008-.055-.016 0-.016.121m-4.191.129c.004.176.008.242.016.148s.004-.234-.004-.316-.012-.008-.012.168m4.16.305c0 .078.004.109.012.07a.45.45 0 0 0 0-.145c-.008-.039-.012-.008-.012.074m-4.156.703c0 .203.004.285.012.184v-.367c-.008-.102-.012-.02-.012.184m4.125.031c0 .113.004.16.012.105a.95.95 0 0 0 0-.211c-.008-.055-.012-.008-.012.105m-.035.418c0 .059.008.086.016.055s.008-.082 0-.113-.016-.004-.016.059m-4.031.543c0 .063.004.086.016.055s.008-.082 0-.113-.016-.004-.016.059m3.652.391l-.094.105.105-.094c.098-.09.117-.113.094-.113-.004 0-.051.047-.105.102m-3.469.387a1.14 1.14 0 0 0 .105.105l.102.094-.094-.105c-.086-.098-.113-.117-.113-.094m1.574.27c.031.008.082.008.113 0s.008-.016-.055-.016-.086.008-.059.016m-.285.031c.031.008.082.008.109 0s.008-.016-.055-.016-.086.008-.055.016" fill="rgb(45.882353%,76.470588%,95.686275%)"/><path d="M15.574 5.496h.723c.195-.004.035-.012-.359-.012l-.363.012m-1 .039l-.125.023.109.004a1.81 1.81 0 0 0 .242-.023l.129-.027h-.113a1.81 1.81 0 0 0-.242.023m2.496.004l.289.023h.129l-.129-.027c-.07-.016-.199-.027-.289-.023h-.16l.16.027m-2.957.063l-.082.023h.082c.043 0 .113-.012.16-.023l.078-.027h-.078a.55.55 0 0 0-.16.027m3.566 0c.055.012.141.023.191.023h.098l-.098-.023a.78.78 0 0 0-.191-.027h-.094l.094.027m-3.953.063l-.078.027h.078a.55.55 0 0 0 .16-.027l.082-.027h-.082a.6.6 0 0 0-.16.027m4.418 0a.57.57 0 0 0 .16.023c.07 0 .07 0-.016-.023-.137-.035-.254-.035-.145 0m-4.687.063l-.066.027.066.004a.2.2 0 0 0 .109-.031c.066-.039-.016-.039-.109 0m5.023 0c.035.016.098.027.145.027h.078l-.078-.027c-.047-.012-.109-.023-.145-.023l-.066-.004.066.027m-5.281.066l-.062.027h.063a.27.27 0 0 0 .113-.027c.063-.043-.016-.043-.113 0m5.602 0c.035.016.086.027.109.027.031 0 .027-.012-.016-.027-.035-.016-.086-.027-.109-.027-.031 0-.027.008.016.027m.254.063c.012.02.051.031.09.031.07-.004.07-.004.008-.031-.09-.039-.121-.039-.098 0m.242.063c.027.02.074.035.109.035.082 0 .055-.02-.062-.047-.07-.016-.082-.012-.047.012m-6.77.066l-.062.027h.063c.035.004.086-.012.113-.027.063-.043-.016-.043-.113 0m7.535.176a.58.58 0 0 0 .25.098c.012-.012.012-.02 0-.02s-.07-.02-.133-.047-.117-.043-.117-.031m-8.445.18l-.234.094c-.141.059-.898.449-.934.484-.02.02.152-.062.383-.176l.879-.406c.016 0 .039-.016.051-.031.023-.039.027-.043-.145.035m8.895.012a3.03 3.03 0 0 0 .23.129l.77.449c.18.117.309.191.285.164-.039-.047-.566-.387-.773-.496-.371-.203-.512-.27-.512-.246m-10.266.676c-.148.09-.184.137-.047.063.098-.051.227-.145.199-.145-.008 0-.074.035-.152.082m-.453.289c-.402.266-1.059.832-1.059.914 0 .012.063-.039.133-.121.191-.203.613-.551.91-.75l.285-.195c.074-.066-.02-.016-.27.152m12.066-.156a.5.5 0 0 0 .203.164c.008-.008-.035-.055-.098-.102s-.109-.078-.105-.062m.668.609c.219.223.457.496.527.605s.141.199.156.199c.035 0-.176-.285-.422-.574-.184-.211-.617-.641-.648-.641-.008 0 .168.184.387.41m-8.383.328c-.078.012.027.016.238.008l.398-.031c.023-.02-.488 0-.637.023m1.281-.02c.008.004.188.02.398.027.262.012.324.008.191-.008-.203-.027-.613-.043-.59-.02m-1.859.082l-.672.129-.109.031.109-.016.305-.051.465-.074c.148-.023.223-.043.16-.043a2.25 2.25 0 0 0-.258.023m2.801 0c.055.012.141.023.191.023.082 0 .078-.004-.031-.027-.16-.031-.293-.031-.16.004m.352.063c.063.027.234.047.207.023-.008-.008-.07-.023-.141-.031-.09-.016-.109-.012-.066.008m.273.063c.027.02.074.035.109.035.082 0 .055-.02-.062-.043-.07-.016-.082-.016-.047.008m-8.469.203l-.18.238c-.02.023-.023.043-.016.043a1.35 1.35 0 0 0 .156-.184l.207-.297c-.008 0-.082.09-.168.199m3.957-.105l-.266.082c-.102.031-.18.059-.172.066s.082-.008.168-.035l.316-.094c.09-.023.133-.047.098-.047a.52.52 0 0 0-.145.027m4.863 0l.254.094c.094.039.176.063.184.059.016-.02-.414-.184-.469-.18-.027 0-.012.012.031.027m-5.527.207a.64.64 0 0 0-.125.059c-.023.023.121-.016.246-.066.109-.047.008-.039-.121.008m6.262.098c0 .008.047.039.105.066l.105.051-.082-.066c-.074-.062-.129-.082-.129-.051m5.219.031c0 .02.031.07.066.113.043.055.055.059.031.016-.055-.105-.098-.16-.098-.129m-11.969.051c-.027.016-.105.055-.172.082s-.117.055-.109.063.109-.027.219-.078.184-.094.16-.094-.07.012-.098.027m7.23.223l.211.188.191.16c.035.023-.016-.031-.113-.121l-.273-.23-.094-.066.078.07m4.867-.039c0 .012.027.059.066.102l.063.082-.051-.105c-.047-.098-.082-.133-.078-.078m-15.41.297c-.047.09-.078.176-.074.188s.051-.059.098-.16c.105-.23.09-.25-.023-.027m15.539-.094c-.004.043.098.258.113.242.008-.008-.012-.07-.047-.141s-.066-.113-.066-.102m-13.566.238c-.098.043-.168.086-.16.094.016.016.348-.141.348-.164s-.004-.02-.187.07m9.133.148c.066.086.129.152.137.152.023 0-.117-.176-.187-.238-.043-.035-.02.004.051.086m-11.23.012a.33.33 0 0 0 .047.301c.074.098.082.063.012-.051-.035-.051-.047-.113-.035-.187.02-.121.008-.145-.023-.062m1.676.055c-.187.094-.449.207-.617.262-.035.008-.055.027-.047.035.031.027.891-.348.891-.387 0-.023-.004-.023-.227.09m3.883-.027c-.094.043-.168.086-.168.098s.043-.004.102-.035.152-.07.215-.094.094-.043.066-.043-.125.031-.215.074m.578-.031c.031.031.07.094.09.137s.039.074.047.063c.027-.027-.094-.223-.148-.242-.031-.008-.031.004.012.043m5.305.297c.078.137.125.191.125.156 0-.027-.164-.277-.184-.277-.008 0 .02.055.059.121m-5.148.055c0 .055.012.133.023.176l.027.082v-.082c0-.043-.012-.121-.027-.176l-.023-.094v.094m-6.105.051a.34.34 0 0 0 .113.027c.031 0 .023-.012-.016-.027a.34.34 0 0 0-.113-.027c-.027 0-.023.008.016.027m.516 0c-.086.02-.09.023-.02.023.047 0 .125-.012.18-.023.082-.023.086-.027.016-.027-.047 0-.125.012-.176.027m4.094.191c-.105.105-.18.191-.168.191a2.53 2.53 0 0 0 .367-.371c-.008-.008-.094.074-.199.18m6.816.023c.055.129.082.164.082.113a.66.66 0 0 0-.117-.234c-.008 0 .008.055.035.121m4.438.055a.38.38 0 0 0 .027.129l.027.063v-.062a.38.38 0 0 0-.027-.129l-.027-.062v.063m-11.629.344c-.129.164-.32.441-.301.441.008 0 .09-.105.184-.23l.215-.289c.086-.113.012-.051-.098.078m7.352.008l.051.191a1 1 0 0 1 .035.176c0 .063.004.066.016.016a.8.8 0 0 0-.035-.25c-.051-.195-.105-.301-.066-.133m4.359.051c.008.078.023.148.027.156.027.027.008-.176-.02-.238-.02-.043-.023-.016-.008.082m.047.285c0 .047.012.148.023.227l.027.145v-.129a1.22 1.22 0 0 0-.023-.223c-.023-.09-.027-.09-.027-.02m-12.191.281c-.176.281-.234.395-.219.395a1.12 1.12 0 0 0 .129-.191l.164-.27c.031-.047.047-.086.039-.086s-.059.07-.113.152m7.922.105l.027.285c.023.023.004-.398-.02-.477-.012-.047-.016.039-.008.191m-5.602.129c-.012.094-.02.262-.02.367.004.176.008.168.035-.098.031-.328.02-.539-.016-.27m9.941.367c0 .156.004.227.012.152s.004-.203 0-.289-.012-.023-.012.137m-12.602-.016c-.047.086-.082.16-.07.16.02 0 .184-.297.168-.309-.004-.008-.051.059-.098.148m8.313.109c0 .125.004.172.012.105s.008-.168 0-.227-.012 0-.012.121m-8.477.176c-.027.059-.043.109-.035.117s.035-.031.066-.086.043-.109.035-.117-.035.031-.066.086m2.754.266c-.012.098-.016.203-.012.234s.027-.035.039-.156.02-.227.008-.234-.023.063-.035.156m5.684.121c-.004.129-.027.383-.055.559-.051.355-.051.387-.031.363.039-.035.117-.738.105-.937l-.012-.227-.008.242m4.273.09c-.012.133-.016.246-.008.254.02.02.059-.32.043-.41-.004-.043-.023.027-.035.156m-10.016.23c-.012.043-.02.121-.02.176.004.074.012.066.031-.051.031-.156.023-.254-.012-.125m9.965.176c0 .035-.012.098-.023.145-.016.066-.012.07.02.02.02-.031.031-.094.023-.141-.008-.059-.016-.066-.02-.023m-10.031.223c-.012.031-.02.098-.016.156.004.086.008.082.031-.043.027-.145.02-.203-.016-.113m9.949.176c-.012.055-.016.109-.008.117s.027-.031.039-.086.016-.105.004-.117-.023.031-.035.086m-4.27.129l-.02.16-.02.078.035-.078c.02-.043.031-.113.023-.16l-.012-.082-.008.082m-5.742.098c-.012.043-.02.121-.016.172 0 .078.008.07.031-.047.027-.156.02-.254-.016-.125m9.945.031c-.012.035-.012.074-.004.082s.023-.016.039-.051.012-.078.004-.086-.027.016-.039.055m-13.305.313l-.086.246c.004.02.047-.074.098-.203s.09-.242.086-.25-.051.086-.098.207m9.039-.152l-.023.125c-.016.07-.012.074.02.023.02-.031.027-.09.02-.129s-.016-.047-.016-.02m4.207.047c-.012.047-.016.094-.008.102s.023-.027.035-.074.012-.09.008-.098-.023.023-.035.07m-9.949.113c-.012.043-.02.121-.02.176.004.074.008.066.031-.051.031-.156.023-.254-.012-.125m5.676.082a.35.35 0 0 1-.023.098c-.016.047-.012.051.02.023.02-.023.031-.066.023-.098s-.016-.043-.02-.023m-9.121.305c-.066.176-.098.293-.074.273.027-.031.137-.352.125-.367-.008-.004-.031.039-.051.094m3.379-.031a.6.6 0 0 0-.016.172c0 .066.012.047.027-.062.031-.168.023-.234-.012-.109m-.062.352a.77.77 0 0 0-.02.172c.004.066.012.047.031-.062.027-.168.02-.23-.012-.109m9.66.223c-.027.055-.043.109-.035.117s.035-.031.066-.09.043-.109.035-.117-.035.031-.066.09m-4.227.07l-.051.102.066-.078c.063-.078.082-.129.051-.129-.008 0-.039.047-.066.105m-5.5.063a.65.65 0 0 0-.016.152c0 .047.016.02.031-.062.027-.148.02-.215-.016-.09m9.621.078c-.012.031-.047.098-.078.141s-.059.098-.059.113c0 .035.141-.18.168-.254.012-.031.016-.055.008-.055s-.027.023-.039.055m-4.309.156c-.16.238-.547.641-.77.797-.266.188-.344.258-.18.156.375-.223.883-.73 1.043-1.039.074-.145.035-.109-.094.086m-8.879.004c-.004.02-.016.063-.027.094-.016.047-.012.051.02.023.023-.02.035-.062.023-.098s-.016-.043-.016-.02m3.453.348l-.059.301c-.008.043-.008.074.004.063a2.77 2.77 0 0 0 .109-.547c-.008-.02-.031.063-.055.184m9.449-.027c-.062.102-.207.305-.32.449l-.18.262c.043 0 .68-.895.637-.895-.012 0-.07.082-.137.184m-12.969-.129c0 .02-.012.063-.023.094-.016.047-.012.051.02.023.02-.02.031-.062.023-.098s-.016-.039-.02-.02m-.062.207a.65.65 0 0 1-.023.113c-.016.055-.016.055.02 0 .02-.031.031-.082.02-.113-.012-.047-.012-.047-.016 0m-.066.207a.35.35 0 0 1-.023.098c-.016.047-.012.051.02.023.023-.023.031-.066.023-.098s-.016-.043-.02-.023m3.535.285c-.012.066-.016.125-.004.133s.023-.035.035-.102.016-.121.008-.133-.027.039-.039.102m-3.617-.016c-.012.035-.016.074-.004.082s.023-.016.035-.051.016-.078.008-.086-.027.016-.039.055m3.555.305c-.012.063-.016.125-.008.133s.027-.039.039-.102.016-.125.008-.133-.027.035-.039.102m9.02-.043l-.168.215c.012 0 .07-.062.137-.141.121-.148.145-.203.031-.074m-9.082.348c-.012.074-.016.141-.008.148s.023-.047.035-.121a.39.39 0 0 0 .008-.145c-.008-.008-.023.043-.035.117m3.645-.098l-.066.027h.066a.27.27 0 0 0 .113-.027c.063-.043-.02-.043-.113 0m-.273.063l-.078.027h.078c.043.004.102-.012.129-.027.063-.039-.004-.039-.129 0m-7.055.082c-.012.047-.012.094-.008.098s.023-.023.035-.07.016-.09.008-.098-.023.023-.035.07m12.406 0c-.039.043-.059.078-.047.078s.063-.035.105-.078.063-.082.043-.078-.062.035-.102.078m-5.621-.02c-.09.023-.09.027-.02.031.047 0 .105-.012.129-.031.055-.035.027-.035-.109 0m-.32.066l-.098.023.098.004c.051 0 .117-.012.145-.027.059-.039.004-.039-.145 0m-.336.063c-.109.023-.109.023-.016.027a.49.49 0 0 0 .16-.027c.074-.031.012-.031-.145 0m-6.191.113c-.012.047-.016.094-.008.102s.023-.027.035-.074.016-.09.008-.098-.023.023-.035.07m5.805-.047l-.109.023h.109c.063 0 .141-.012.176-.023l.066-.027h-.066c-.035 0-.113.012-.176.027m-2.125.094c-.016.055-.016.109-.008.117s.027-.031.039-.086.016-.105.004-.117-.023.031-.035.086m1.824-.031c-.09.023-.09.023-.02.027.047 0 .109-.012.145-.027.078-.035.008-.035-.125 0m-.262.063c-.32.074-.516.41-.406.695.02.051.027.004.027-.145 0-.305.16-.516.395-.52.027 0 .074-.012.102-.031.055-.035.027-.035-.117 0m6.738.168l-.176.16.176-.137.191-.148c.008-.004.008-.016 0-.023s-.094.059-.191.148m-12.043-.02c-.012.047-.016.09-.008.098s.023-.023.035-.07.016-.094.008-.102-.023.027-.035.074m3.676.125c-.012.063-.016.121-.008.129s.027-.035.039-.098.016-.125.004-.133-.023.035-.035.102m-3.738.094a.36.36 0 0 0-.02.109c.004.035.012.027.035-.023.016-.043.023-.094.02-.113s-.023-.004-.035.027m11.855 0a3.18 3.18 0 0 1-.309.227l-.273.199c0 .016.039-.004.32-.199.266-.176.336-.234.313-.258-.008-.008-.031.004-.051.031m-8.184.223c-.012.066-.012.125-.004.133s.023-.035.039-.098.012-.125.004-.133-.027.035-.039.098m-3.742.051c-.012.055-.016.109-.008.117s.027-.031.039-.09c.023-.133 0-.156-.031-.027m-.062.258c-.012.055-.016.105-.008.113s.023-.031.035-.086c.027-.133 0-.16-.027-.027m3.742 0c-.012.055-.012.105-.004.117s.027-.031.039-.086.012-.109.004-.117-.023.031-.039.086m7.473-.027c-.16.094-.199.141-.047.063.16-.082.234-.133.191-.129-.016 0-.082.031-.145.066m-6.047.016c0 .051.254.324.254.273 0-.02-.012-.039-.027-.039s-.074-.059-.129-.133-.098-.121-.098-.102m5.734.152c-.117.066-.121.086-.012.047.055-.02.109-.047.121-.062.023-.039-.02-.031-.109.016m-10.969.102c-.012.063-.031.125-.047.184s-.031.125-.027.16.027-.039.063-.168l.047-.254c-.008-.008-.023.027-.035.078m3.75.031c-.012.027-.02.082-.016.121 0 .047.012.035.031-.039.035-.109.02-.176-.016-.082m6.285.238c-.043.027-.043.031 0 .031.027 0 .07-.016.094-.031.043-.027.043-.031 0-.031a.19.19 0 0 0-.094.031m-6.348.082a.44.44 0 0 0-.02.137c.004.066.012.059.035-.039.027-.129.02-.191-.016-.098m2.348-.02a.19.19 0 0 0 .094.031c.043 0 .043-.004 0-.031-.023-.016-.066-.031-.094-.031-.043 0-.043.004 0 .031m3.758 0l-.062.027.063.004c.035 0 .086-.012.113-.031.063-.039-.016-.039-.113 0m-3.535.066a.23.23 0 0 0 .098.027c.043 0 .043 0 0-.027-.027-.02-.07-.031-.098-.031-.043 0-.043 0 0 .031m3.281 0c-.043.016-.047.027-.016.027.023 0 .074-.016.109-.027.043-.02.047-.027.016-.027-.023 0-.074.012-.109.027m-9.695.277l-.082.344c-.016.055-.035.156-.043.227-.023.156.02.043.07-.195l.086-.379c.027-.117.047-.223.039-.23s-.039.098-.07.234m6.703-.215c.078.023.309.043.285.02-.008-.008-.094-.02-.191-.031-.113-.012-.145-.008-.094.012m2.625 0l-.145.023h.125c.074 0 .164-.008.211-.023.102-.031.016-.031-.191 0m-2.129.066c.125.023.617.043.59.02-.008-.008-.172-.02-.367-.031-.23-.012-.309-.008-.223.012m1.52-.004l-.238.023h.238a1.75 1.75 0 0 0 .336-.023l.098-.023-.098.004c-.055 0-.203.008-.336.02m-4.941.18c-.012.027-.016.09-.016.137.004.066.008.059.031-.039.031-.129.02-.191-.016-.098m-.062.395c-.012.059-.02.152-.016.207 0 .07.012.047.031-.074.031-.191.02-.305-.016-.133m-3.887.34c-.004.035-.016.098-.023.145-.016.066-.012.07.02.023.02-.031.027-.098.02-.145-.008-.059-.012-.066-.016-.023m3.824.301a4.55 4.55 0 0 0-.016.48c.004.258.004.25.031-.141.031-.461.023-.66-.016-.34m-3.906.063c-.012.078-.016.148-.008.156.023.02.063-.203.043-.254-.004-.023-.023.02-.035.098m-.047.293a1.22 1.22 0 0 1-.023.16c-.016.066-.012.07.02.023a.29.29 0 0 0 .023-.16c-.012-.082-.016-.086-.02-.023m-.062.352a2.26 2.26 0 0 1-.023.16c-.016.066-.016.07.016.023a.29.29 0 0 0 .023-.16c-.008-.082-.012-.086-.016-.023m3.953.477a5.78 5.78 0 0 0-.02.48c.004.258.008.25.031-.141.031-.461.023-.66-.012-.34m-4.02-.09l-.02.191c-.016.102-.016.102.016.031.02-.043.031-.129.023-.191-.008-.082-.016-.09-.02-.031m-.078.551c-.016.086-.02.164-.012.172.023.023.063-.195.047-.266-.008-.035-.023.008-.035.094m-.066.527c-.012.113-.016.211-.008.223.023.02.059-.258.047-.348-.008-.043-.023.016-.039.125m4.102.215c-.016.121-.023.359-.02.527.004.285.004.277.031-.16.031-.508.023-.719-.012-.367m-4.164.555l-.012.379c.023.02.063-.496.051-.629-.008-.062-.023.051-.039.25m4.098.629c-.012.125-.02.359-.016.527.004.277.004.262.031-.176.027-.52.02-.711-.016-.352m-4.141.449c0 .105.008.145.012.086s.008-.145 0-.191-.012 0-.012.105m4.098.703c0 .105.004.145.012.086s.008-.145 0-.191-.012 0-.012.105m-4.07.273c0 .094.012.238.023.316l.027.145v-.16a2.25 2.25 0 0 0-.023-.32l-.023-.156-.004.176m4.031.094a1.11 1.11 0 0 1-.125.496l-.043.098.063-.078c.082-.102.141-.367.125-.547-.012-.145-.012-.145-.02.031m-3.965.609a1.04 1.04 0 0 0 .023.176l.027.094v-.109c0-.062-.012-.141-.027-.176-.023-.059-.027-.059-.023.016m3.695.109c-.09.113-.437.371-.5.371-.02 0-.035.016-.035.031 0 .086.535-.309.609-.453.047-.09.027-.074-.074.051m-3.637.211c0 .023.012.07.031.094.027.043.031.043.031 0 0-.023-.016-.07-.031-.094-.027-.043-.031-.043-.031 0m.063.188c0 .043.227.297.246.277.012-.008-.027-.055-.082-.098s-.102-.105-.102-.129-.012-.051-.031-.062-.031-.004-.031.012m2.496.195c-.062.043.016.043.109 0l.066-.027h-.066c-.035-.004-.082.012-.109.027m-.258.063c-.062.043.016.043.113 0l.063-.027h-.062a.27.27 0 0 0-.113.027m-.398.066c-.09.035.059.035.176 0 .078-.027.078-.027-.016-.027a.47.47 0 0 0-.16.027m-1.32.066c.098.031.668.027.887 0 .113-.016-.023-.023-.391-.023l-.496.023" fill="rgb(65.098039%,84.313725%,97.647059%)"/><path d="M15.707 5.434l.383-.004c.102-.004.008-.008-.203-.008s-.293.004-.18.012m-.609.031a1.83 1.83 0 0 0 .207 0c.055-.008.008-.016-.105-.016s-.16.008-.102.016m1.453 0a1.32 1.32 0 0 0 .176 0c.051-.008.012-.016-.086-.016s-.137.008-.09.016m-1.871.031c.059.008.152.008.207 0s.012-.016-.102-.016-.164.008-.105.016m2.289 0c.086.008.215.008.289 0s.004-.012-.152-.012-.219.004-.137.012m-2.918.07c-.031.02.004.023.094.012l.156-.031c.031-.023-.207-.008-.25.02m3.551-.02c.008.008.109.02.223.027.121.012.18.008.145-.008-.062-.023-.395-.043-.367-.02m-3.922.086c-.039.016-.008.02.098.008.086-.008.164-.023.172-.027.027-.027-.207-.008-.27.02m4.402-.02c.008.004.078.02.156.027.094.012.125.008.098-.012-.043-.027-.285-.043-.254-.016m-4.676.086c-.035.023-.02.023.051.008.117-.023.141-.043.059-.043-.031 0-.082.016-.109.035m5.059-.023c.008.008.066.02.129.031.078.016.098.012.063-.012-.043-.027-.223-.047-.191-.02m-5.312.086c-.035.023-.023.027.047.012.117-.027.145-.047.063-.047-.035.004-.082.016-.109.035m5.938.063c.086.039.117.039.094 0-.012-.02-.051-.031-.09-.031-.066.004-.066.004-.004.031m-8.379.898c-.102.051-.184.102-.184.109s.086-.027.191-.078.191-.105.191-.113c0-.023.008-.023-.199.082m10.504-.039l.176.117.098.051-.078-.062c-.043-.035-.121-.086-.176-.117l-.098-.055.078.066m-10.848.23c-.051.043-.059.055-.016.031.105-.051.164-.098.129-.098-.02 0-.07.031-.113.066m-.199.113c-.121.063-.113.09.008.027.055-.027.098-.055.098-.062 0-.023-.004-.02-.105.035m12.105.398c0 .008.168.188.375.398.23.238.285.289.145.129l-.52-.527m-12.914.168l-.094.102.102-.094c.098-.086.121-.113.094-.113a.89.89 0 0 0-.102.105m-.254.203c-.098.086-.105.098-.031.047.09-.059.199-.164.168-.164-.004.004-.066.055-.137.117m5.637.32a.95.95 0 0 0 .211 0c.055-.004.008-.012-.105-.012s-.16.008-.105.012m.496.004c.066.004.176.004.242 0s.012-.016-.121-.016-.184.008-.121.016m-1.039.031a1.89 1.89 0 0 0 .258 0c.066-.008.004-.012-.137-.012s-.195.004-.121.012m1.602 0a1.41 1.41 0 0 0 .223 0c.066-.008.02-.016-.102-.016s-.18.008-.121.016m-2.344.07c-.043.02-.008.023.094.012l.176-.031c.027-.023-.211-.004-.27.02m2.961-.02c.008.008.07.02.141.031.09.016.109.012.066-.008-.062-.027-.234-.047-.207-.023m-3.312.086c-.043.02-.02.023.078.008.078-.008.152-.023.156-.031.027-.023-.176-.004-.234.023m3.633-.023c.008.008.063.023.125.035.078.012.098.012.066-.012-.047-.027-.223-.047-.191-.023m.352.086c.023.016.066.031.094.031.043 0 .043-.004 0-.031-.027-.016-.07-.031-.094-.031-.043 0-.043.004 0 .031m-8.551.055c-.09.113-.129.168-.113.168.008 0 .055-.047.102-.109.086-.113.098-.16.012-.059m14.645.082c.031.051.066.082.074.07s-.016-.047-.055-.086l-.074-.074.055.09m-14.887.234c-.043.059-.066.109-.059.109a.65.65 0 0 0 .141-.207c-.008-.008-.043.035-.082.098m-.266.406c-.074.133-.133.273-.086.211.039-.047.211-.379.199-.379s-.059.074-.113.168m10.691.047c.004.012.078.09.168.168l.164.141-.156-.164c-.164-.172-.18-.187-.176-.145m-4.859.293c.082.012.176.043.207.07s.027.012-.016-.027c-.055-.055-.109-.07-.207-.066l-.137.004.152.02m-6.016.195c0 .078.008.113.016.07s.008-.094 0-.141-.016-.008-.016.07m5.348.016c-.121.078-.207.145-.191.145s.066-.027.117-.066a3.19 3.19 0 0 1 .23-.141c.074-.043.121-.082.102-.082s-.133.066-.258.145m1.035.277c.027.145.043.156.043.035 0-.055-.016-.109-.031-.121s-.027.02-.012.086m-5.559.027c-.066.02-.07.027-.016.027.035.004.086-.012.113-.027.055-.035.016-.035-.098 0m4.016.098c-.051.051-.082.094-.07.094a.55.55 0 0 0 .176-.18c-.008-.008-.055.031-.105.086m-.227.262l-.125.137.137-.125.137-.137c0-.027-.027 0-.148.125m11.559.023c.008.078.031.203.047.273l.027.129-.016-.145a2.68 2.68 0 0 0-.043-.273l-.031-.129.016.145m-4.336.449a.34.34 0 0 0 .027.113l.027.063.004-.062c0-.035-.012-.086-.031-.113-.027-.043-.031-.043-.027 0m4.453.238c0 .09.008.121.016.074a.73.73 0 0 0 0-.16c-.008-.039-.016 0-.016.086m-4.387.113c0 .082.051.219.051.145.004-.035-.008-.094-.023-.129s-.027-.047-.027-.016m-8.023.191c-.027.055-.043.098-.031.098s.039-.043.066-.098.039-.094.031-.094-.039.043-.066.094m12.445.129c0 .133.004.188.012.121s.008-.176 0-.242-.012-.012-.012.121m-9.926.035l-.023.305c-.012.145-.012.148.02.051a1.01 1.01 0 0 0 .02-.305c-.008-.164-.012-.172-.016-.051m9.926.574c0 .129.004.184.012.117s.008-.172 0-.238-.012-.012-.012.121m-9.992.227c0 .066-.012.145-.023.176-.016.055-.016.059.02.004.02-.031.031-.109.023-.176l-.012-.121-.008.117m9.957.25c0 .098.008.137.016.09a.66.66 0 0 0 0-.176c-.008-.047-.016-.008-.016.086m-4.375.066c-.016.09-.016.172-.008.18s.023-.059.035-.152.016-.168.008-.176-.023.059-.035.148m-5.645.16l-.023.129c-.016.066-.012.07.02.02.02-.031.027-.086.02-.125s-.016-.051-.016-.023m9.953.223c0 .063.008.086.016.055s.008-.078 0-.109-.016-.008-.016.055m-4.375.129c-.012.055-.016.105-.004.117s.023-.031.035-.086.016-.105.008-.117-.027.031-.039.086m-5.66.113c-.012.047-.016.094-.008.102s.027-.023.039-.07.016-.09.004-.102-.023.023-.035.07m9.906.309a1.39 1.39 0 0 1-.023.109c-.02.059-.016.059.02.004.02-.031.027-.082.02-.113-.012-.047-.016-.051-.016 0m-9.953.031c-.004.027-.012.078-.023.113-.016.055-.016.055.02 0 .02-.031.031-.082.02-.113-.012-.047-.012-.047-.016 0m9.887.191c0 .031-.012.082-.02.113-.02.055-.02.055.016 0 .02-.031.031-.082.023-.109-.012-.051-.016-.051-.02-.004m-.062.207c-.004.023-.016.066-.023.098-.02.047-.012.051.016.023s.035-.066.027-.098-.02-.043-.02-.023m-9.969.352c-.012.047-.016.09-.008.102s.027-.023.039-.07.012-.094.004-.102-.023.023-.035.07m-.066.383c-.012.047-.016.09-.008.098s.023-.023.035-.07.016-.09.008-.098-.023.023-.035.07m5.32.246c-.07.109-.133.234-.098.199.043-.047.176-.273.16-.273s-.039.035-.062.074m-5.383.074c-.012.047-.016.094-.008.102s.027-.023.039-.07.016-.094.004-.102-.023.023-.035.07m5.113.316c-.062.082-.113.152-.105.156s.066-.059.133-.145c.152-.195.133-.203-.027-.012m-5.176-.008a.42.42 0 0 0-.016.137c0 .035.016.008.031-.062.031-.133.02-.199-.016-.074m4.91.328c-.059.059-.223.191-.367.293-.285.203-.359.262-.254.207.184-.094.813-.609.742-.609-.008 0-.062.047-.121.109m-4.973-.008c-.012.039-.02.102-.02.137s.016.008.035-.062c.031-.133.016-.199-.016-.074m9.145.332c-.051.066-.074.109-.055.098.043-.027.18-.215.16-.215-.008 0-.055.055-.105.117m-9.211-.035c-.012.031-.02.086-.016.121 0 .047.012.031.027-.043.031-.117.023-.164-.012-.078m8.977.328a.74.74 0 0 0-.133.18c0 .016.031-.012.07-.062l.148-.184c.047-.047.074-.086.063-.086s-.078.066-.148.152m-9.043.027l-.051.219c-.039.148-.07.355-.051.336.012-.012.035-.082.051-.16l.063-.316c.02-.094.027-.18.023-.187s-.023.043-.035.109m3.488.234c-.023.039.008.039.094 0 .063-.023.063-.027-.004-.027-.039 0-.082.012-.09.027m-.258.066c-.023.039.008.039.098 0 .059-.027.059-.027-.008-.031-.039 0-.078.012-.09.031m5.297.246l-.273.281.281-.27.27-.289c-.004 0-.129.125-.277.277m-5.586-.184c-.023.039.008.039.098 0 .063-.027.063-.027-.008-.027-.035-.004-.078.012-.09.027m-.285.066c-.023.035.008.035.094 0 .063-.027.063-.027-.004-.031-.039 0-.082.012-.09.031m-.371.063c-.059.039.008.039.129 0l.082-.027h-.082c-.043-.004-.102.012-.129.027m-6.187.082c-.012.031-.016.07-.016.105 0 .027.016.012.031-.043.031-.102.02-.148-.016-.062m5.82-.02c-.023.039.008.039.098 0 .063-.023.063-.027-.008-.027-.039-.004-.078.012-.09.027m-.305.066c-.039.027-.039.031 0 .031.027 0 .07-.016.098-.031.043-.027.043-.031 0-.031-.027 0-.07.012-.098.031m-1.754.051c-.004.047-.012.086-.023.129-.016.055-.016.055.02.004.02-.031.031-.09.023-.129-.016-.07-.016-.07-.02-.004m-3.84.211a.61.61 0 0 1-.023.109c-.016.059-.016.059.02.004.02-.031.027-.082.02-.113-.012-.051-.012-.051-.016 0m3.773.074c-.004.047-.012.094-.02.145l-.016.078.035-.078c.016-.043.027-.109.02-.145-.012-.062-.012-.062-.02 0m8.164.098l-.223.172c-.031.016-.047.035-.039.047s.125-.07.25-.176l.207-.187a1.24 1.24 0 0 0-.195.145m-8.227.211a.51.51 0 0 1-.023.145c-.016.055-.016.055.02 0 .02-.031.031-.094.023-.145l-.012-.086-.008.086m1.184.113c-.004.039.012.078.027.09.039.023.039-.008 0-.098-.023-.062-.027-.059-.027.008m-1.246.223c-.004.043-.012.086-.023.129-.016.055-.016.055.02 0 .02-.031.027-.09.02-.129-.012-.07-.012-.07-.016 0m-3.84.016c-.004.031-.012.082-.023.113-.016.055-.016.055.02 0 .02-.031.027-.082.02-.113-.012-.047-.016-.047-.016 0m-.066.258a.59.59 0 0 1-.02.109c-.02.059-.02.059.016.004.02-.031.031-.082.023-.113-.012-.051-.016-.051-.02 0m3.84.016a.44.44 0 0 1-.02.125c-.02.059-.02.059.016.004.02-.031.031-.09.023-.129-.012-.07-.012-.07-.02 0m1.852.168c.047.035.098.063.113.063.035.004-.023-.043-.129-.098-.039-.02-.035-.008.016.035m-5.77.133c-.027.133 0 .16.027.027.012-.055.016-.105.008-.113s-.023.031-.035.086m5.965-.047c0 .023.234.109.277.102.02-.004-.031-.035-.121-.062s-.156-.047-.156-.039m4.223.012c-.066.02-.07.027-.016.027.035.004.086-.012.113-.027.055-.035.016-.035-.098 0m-6.332.047c-.004.051-.012.098-.02.145l-.02.082.035-.078c.02-.047.027-.109.023-.145-.016-.066-.016-.066-.02-.004m6.125.016l-.098.027.086.004c.047 0 .098-.012.105-.031s.016-.027.012-.027a1.12 1.12 0 0 1-.105.027m-3.637.074c.016.016.063.023.105.016.063-.008.059-.012-.031-.027-.062-.012-.094-.008-.074.012m3.348-.008c-.086.02-.09.023-.016.023.043.004.109-.008.145-.023.078-.035.004-.035-.129 0m-3.07.063c.059.027.328.043.301.02-.008-.004-.094-.02-.191-.027-.109-.012-.152-.008-.109.008m2.664.023c.047.008.094.008.141 0s.008-.016-.07-.016-.113.008-.07.016m-9.355.105c-.012.039-.012.074-.004.086s.027-.016.039-.055.012-.074.004-.086-.023.016-.039.055m7.34-.039c.074.004.188.004.254-.004s.004-.012-.137-.012-.195.008-.117.016m1.391-.004c.066.008.172.008.238 0s.012-.012-.117-.012-.187.008-.121.012m-.75.035h.383c.102-.008.008-.012-.203-.012s-.293.004-.18.012m-4.117.102l-.023.129c-.016.07-.012.074.02.023.02-.031.027-.09.02-.129s-.016-.047-.016-.023m-.066.418a1.12 1.12 0 0 1-.02.16l-.016.078.031-.078c.02-.043.031-.113.023-.16l-.012-.082-.008.082m-4.047.629c-.012.012-.02.051-.02.09.004.059.004.059.035-.012.031-.078.023-.117-.016-.078m3.984.105l-.02.32c-.016.172-.016.172.016.051.02-.07.027-.215.023-.32-.012-.164-.012-.172-.02-.051m-4.047.238a.38.38 0 0 0-.02.109c0 .035.012.027.031-.023.02-.043.027-.094.02-.109s-.02-.008-.031.023m-.062.359c-.016.012-.023.051-.02.09 0 .063.004.059.031-.012.031-.078.023-.113-.012-.078m-.066.402c-.012.039-.02.109-.016.152s.012.023.031-.062c.027-.148.016-.215-.016-.09m4.113.184l-.023.32c-.012.172-.012.172.02.051a1.34 1.34 0 0 0 .02-.32c-.008-.164-.012-.168-.016-.051m-4.18.242a.66.66 0 0 0-.016.137c.004.07.008.063.031-.039.031-.125.02-.191-.016-.098m-.062.504a1.05 1.05 0 0 0-.016.215c.004.125.008.117.027-.062.027-.219.023-.277-.012-.152m4.18.441l-.023.352-.016.176.035-.156a1.69 1.69 0 0 0 .02-.352l-.012-.195-.004.176m-4.242.18c-.012.066-.02.223-.016.348.004.203.004.195.027-.113.027-.344.023-.441-.012-.234m4.176 1.051l-.02.305c-.016.168-.016.172.016.047.02-.07.027-.207.023-.305-.012-.137-.016-.148-.02-.047m-4.219.352c0 .195.008.27.012.168a2.64 2.64 0 0 0 0-.352c-.004-.094-.012-.008-.012.184m4.156.805l-.023.238c-.016.102-.016.102.016.031.02-.043.031-.152.023-.242-.012-.148-.012-.152-.016-.027m-4.133.238c0 .129.016.266.027.301s.02-.062.012-.223c-.02-.355-.043-.398-.039-.078m.063.625c0 .066.012.145.027.168s.023-.016.012-.109c-.02-.195-.039-.227-.039-.059m3.852-.043l-.074.117c-.031.051-.035.07-.008.055.039-.023.148-.211.121-.211-.008 0-.027.016-.039.039m-3.574.727c.059.063.109.102.117.094s-.039-.055-.105-.105l-.113-.094.102.105m2.426 0c-.062.027-.062.027.008.031.039 0 .078-.012.09-.031.023-.035-.008-.035-.098 0m-.254.066l-.098.023.086.004c.047 0 .094-.012.105-.027s.016-.031.012-.031-.055.016-.105.031m-.402.063l-.145.023h.129a.52.52 0 0 0 .191-.023c.074-.031.031-.031-.176 0m-1.43.07c.047.031.922.031 1.09 0 .07-.012-.156-.023-.5-.023l-.59.023" fill="rgb(31.372549%,70.588235%,95.686275%)"/></svg>